{
  "accessors": [
    {
      "bufferView": 2,
      "componentType": 5126,
      "count": 3626,
      "max": [
        -0.7590439915657043,
        0.02500000037252903,
        1.68448805809021
      ],
      "min": [
        -1.6955829858779907,
        -0.02500000037252903,
        0.8648819923400879
      ],
      "type": "VEC3"
    },
    {
      "bufferView": 2,
      "byteOffset": 43512,
      "componentType": 5126,
      "count": 3626,
      "max": [
        0.9995408654212952,
        1.0,
        0.9998720288276672
      ],
      "min": [
        -1.0,
        -1.0,
        -0.9999911785125732
      ],
      "type": "VEC3"
    },
    {
      "bufferView": 1,
      "componentType": 5126,
      "count": 3626,
      "max": [
        0.0,
        0.0
      ],
      "min": [
        0.0,
        0.0
      ],
      "type": "VEC2"
    },
    {
      "bufferView": 0,
      "componentType": 5125,
      "count": 15264,
      "type": "SCALAR"
    },
    {
      "bufferView": 2,
      "byteOffset": 87024,
      "componentType": 5126,
      "count": 8016,
      "max": [
        1.7093180418014526,
        0.02500000037252903,
        2.362560987472534
      ],
      "min": [
        -1.33958101272583,
        -0.02500000037252903,
        -2.1046030521392822
      ],
      "type": "VEC3"
    },
    {
      "bufferView": 2,
      "byteOffset": 183216,
      "componentType": 5126,
      "count": 8016,
      "max": [
        1.0,
        1.0,
        0.9999995231628418
      ],
      "min": [
        -1.0,
        -1.0,
        -1.0
      ],
      "type": "VEC3"
    },
    {
      "bufferView": 1,
      "byteOffset": 29008,
      "componentType": 5126,
      "count": 8016,
      "max": [
        1.0,
        1.0
      ],
      "min": [
        0.0,
        0.0
      ],
      "type": "VEC2"
    },
    {
      "bufferView": 0,
      "byteOffset": 61056,
      "componentType": 5125,
      "count": 21396,
      "type": "SCALAR"
    }
  ],
  "asset": {
    "extras": {
      "author": "DiabolicMaggot (https://sketchfab.com/DiabolicMaggot)",
      "license": "CC-BY-4.0 (http://creativecommons.org/licenses/by/4.0/)",
      "source": "https://sketchfab.com/3d-models/mh-world-iceborne-logo-f31713e7302e401f807f2db155e0f062",
      "title": "MH World: Iceborne Logo"
    },
    "generator": "Sketchfab-12.66.0",
    "version": "2.0"
  },
  "bufferViews": [
    {
      "buffer": 0,
      "byteLength": 146640,
      "name": "floatBufferViews",
      "target": 34963
    },
    {
      "buffer": 0,
      "byteLength": 93136,
      "byteOffset": 146640,
      "byteStride": 8,
      "name": "floatBufferViews",
      "target": 34962
    },
    {
      "buffer": 0,
      "byteLength": 279408,
      "byteOffset": 239776,
      "byteStride": 12,
      "name": "floatBufferViews",
      "target": 34962
    }
  ],
  "buffers": [
    {
      "byteLength": 519184,
      "uri": "scene.bin"
    }
  ],
  "materials": [
    {
      "doubleSided": true,
      "name": "DarkGreyMetal",
      "pbrMetallicRoughness": {
        "baseColorFactor": [
          0.10882898361056074,
          0.23399759661400826,
          0.3636653735842165,
          1.0
        ],
        "roughnessFactor": 0.2
      }
    },
    {
      "doubleSided": true,
      "name": "GreyMetal",
      "pbrMetallicRoughness": {
        "baseColorFactor": [
          0.263242,
          0.263242,
          0.263242,
          1.0
        ],
        "roughnessFactor": 0.2
      }
    }
  ],
  "meshes": [
    {
      "name": "Object_0",
      "primitives": [
        {
          "attributes": {
            "NORMAL": 1,
            "POSITION": 0,
            "TEXCOORD_0": 2
          },
          "indices": 3,
          "material": 0,
          "mode": 4
        }
      ]
    },
    {
      "name": "Object_1",
      "primitives": [
        {
          "attributes": {
            "NORMAL": 5,
            "POSITION": 4,
            "TEXCOORD_0": 6
          },
          "indices": 7,
          "material": 1,
          "mode": 4
        }
      ]
    }
  ],
  "nodes": [
    {
      "children": [
        1
      ],
      "matrix": [
        1.0,
        0.0,
        0.0,
        0.0,
        0.0,
        2.220446049250313e-16,
        -1.0,
        0.0,
        0.0,
        1.0,
        2.220446049250313e-16,
        0.0,
        0.0,
        0.0,
        0.0,
        1.0
      ],
      "name": "Sketchfab_model"
    },
    {
      "children": [
        2,
        3
      ],
      "name": "IceborneLogo.obj.cleaner.materialmerger.gles"
    },
    {
      "mesh": 0,
      "name": "Object_2"
    },
    {
      "mesh": 1,
      "name": "Object_3"
    }
  ],
  "scene": 0,
  "scenes": [
    {
      "name": "Sketchfab_Scene",
      "nodes": [
        0
      ]
    }
  ]
}
